<svg width="123" height="123" viewBox="0 0 123 123" fill="none" xmlns="http://www.w3.org/2000/svg">
<path d="M57.1732 83.5969C55.7825 83.5969 54.5462 82.9787 53.7737 82.0518L30.4407 56.7099C28.7409 54.8558 28.8956 51.9197 30.7498 50.2199C32.6039 48.5202 35.54 48.6749 37.2398 50.529L57.3276 72.3166L112.956 16.843C114.81 14.9889 117.746 14.9889 119.446 16.843C121.3 18.6972 121.3 21.6332 119.446 23.333L60.4184 82.2062C59.6455 83.1334 58.4095 83.5969 57.1732 83.5969Z" fill="#4DCFE0"/>
<path d="M61.5002 123C27.6595 123 0 95.3405 0 61.5002C0 27.6598 27.6595 0 61.5002 0C64.1271 0 66.1357 2.00884 66.1357 4.63554C66.1357 7.26224 64.1269 9.27109 61.5002 9.27109C32.7588 9.27109 9.27138 32.7585 9.27138 61.4999C9.27138 90.2412 32.7588 113.729 61.5002 113.729C90.2415 113.729 113.729 90.2412 113.729 61.4999C113.729 58.8729 115.738 56.8643 118.364 56.8643C120.991 56.8643 123 58.8732 123 61.4999C123 95.3405 95.3405 123 61.5002 123Z" fill="#1185E0"/>
</svg>
